<svg aria-hidden="true" style="position: absolute; width: 0; height: 0; overflow: hidden;" version="1.1" xmlns="http://www.w3.org/2000/svg" xmlns:xlink="http://www.w3.org/1999/xlink">
<defs>
<symbol id="icon-email" viewBox="0 0 33 32">
<path fill="#fff" style="fill: var(--color1, #fff)" d="M16.326 2.667c-7.36 0-13.333 5.973-13.333 13.333s5.973 13.333 13.333 13.333h6.667v-2.667h-6.667c-5.787 0-10.667-4.88-10.667-10.667s4.88-10.667 10.667-10.667c5.787 0 10.667 4.88 10.667 10.667v1.907c0 1.053-0.947 2.093-2 2.093s-2-1.040-2-2.093v-1.907c0-3.68-2.987-6.667-6.667-6.667s-6.667 2.987-6.667 6.667c0 3.68 2.987 6.667 6.667 6.667 1.84 0 3.52-0.747 4.72-1.96 0.867 1.187 2.36 1.96 3.947 1.96 2.627 0 4.667-2.133 4.667-4.76v-1.907c0-7.36-5.973-13.333-13.333-13.333zM16.326 20c-2.213 0-4-1.787-4-4s1.787-4 4-4c2.213 0 4 1.787 4 4s-1.787 4-4 4z"></path>
</symbol>
<symbol id="icon-instagram" viewBox="0 0 33 32">
<path fill="none" stroke="#fff" style="stroke: var(--color1, #fff)" stroke-linejoin="round" stroke-linecap="round" stroke-miterlimit="4" stroke-width="2.2069" d="M16.315 21.15c1.366 0 2.675-0.542 3.641-1.508s1.508-2.276 1.508-3.641c0-1.366-0.542-2.676-1.508-3.641s-2.276-1.508-3.641-1.508c-1.366 0-2.676 0.543-3.641 1.508s-1.508 2.276-1.508 3.641c0 1.366 0.543 2.675 1.508 3.641s2.276 1.508 3.641 1.508z"></path>
<path fill="none" stroke="#fff" style="stroke: var(--color1, #fff)" stroke-linejoin="miter" stroke-linecap="butt" stroke-miterlimit="4" stroke-width="2.2069" d="M4.729 21.149v-10.299c0-1.707 0.678-3.344 1.885-4.551s2.844-1.885 4.551-1.885h10.299c1.707 0 3.344 0.678 4.552 1.885s1.885 2.844 1.885 4.551v10.299c0 1.707-0.678 3.344-1.885 4.552s-2.844 1.885-4.552 1.885h-10.299c-1.707 0-3.344-0.678-4.551-1.885s-1.885-2.844-1.885-4.552z"></path>
<path fill="none" stroke="#fff" style="stroke: var(--color1, #fff)" stroke-linejoin="round" stroke-linecap="round" stroke-miterlimit="4" stroke-width="2.2069" d="M23.396 8.93l0.011-0.012"></path>
</symbol>
<symbol id="icon-twitter" viewBox="0 0 33 32">
<path fill="none" stroke="#fff" style="stroke: var(--color1, #fff)" stroke-linejoin="round" stroke-linecap="round" stroke-miterlimit="4" stroke-width="2.2857" d="M16.326 9.663c-0.049-1.26 0.3-2.504 0.998-3.555s1.71-1.854 2.891-2.297c1.181-0.443 2.472-0.502 3.689-0.17s2.298 1.040 3.090 2.022c1.778-0.444 3.111-1.111 4-2 0 1.778-0.889 3.556-2.667 5.333 0.267 3.226-0.374 6.461-1.85 9.341s-3.73 5.289-6.506 6.954-5.961 2.52-9.197 2.468c-3.236-0.052-6.393-1.009-9.113-2.763 4.444 0 7.556-0.889 9.333-2.667-7.111-3.556-9.333-9.333-6.667-17.333 3.556 4.444 7.555 6.667 12 6.667v-2z"></path>
</symbol>
<symbol id="icon-facebook" viewBox="0 0 32 32">
<path fill="none" stroke="#fff" style="stroke: var(--color1, #fff)" stroke-linejoin="round" stroke-linecap="round" stroke-miterlimit="4" stroke-width="2.56" d="M1.28 27.611v-24.137c0-0.582 0.231-1.14 0.643-1.552s0.97-0.643 1.552-0.643h24.137c0.582 0 1.14 0.231 1.552 0.643s0.643 0.97 0.643 1.552v24.137c0 0.582-0.231 1.14-0.643 1.552s-0.97 0.643-1.552 0.643h-6.583v-10.401h1.558c0.355 0 0.695-0.141 0.946-0.392s0.392-0.591 0.392-0.946v-1.69c0-0.355-0.141-0.695-0.392-0.946s-0.591-0.392-0.946-0.392h-1.47v-2.063c0-1.843 0.834-1.843 1.668-1.843h1.075c0.177 0.007 0.353-0.024 0.516-0.093s0.309-0.171 0.428-0.302c0.128-0.121 0.228-0.268 0.296-0.43s0.102-0.337 0.099-0.513v-1.624c0.006-0.179-0.024-0.357-0.087-0.524s-0.158-0.321-0.281-0.451c-0.122-0.13-0.269-0.235-0.432-0.309s-0.339-0.114-0.517-0.12h-2.523c-0.736-0.028-1.47 0.105-2.15 0.388s-1.291 0.711-1.789 1.254c-0.499 0.542-0.874 1.187-1.099 1.888s-0.296 1.444-0.206 2.175v2.567h-1.404c-0.178-0.003-0.354 0.030-0.519 0.095s-0.315 0.164-0.442 0.289c-0.127 0.125-0.227 0.273-0.296 0.437s-0.104 0.34-0.104 0.517v1.69c0 0.178 0.035 0.354 0.104 0.517s0.169 0.312 0.296 0.437c0.127 0.125 0.277 0.223 0.442 0.289s0.341 0.098 0.519 0.096h1.404v10.401h-12.639c-0.582 0-1.14-0.231-1.552-0.643s-0.643-0.97-0.643-1.552z"></path>
</symbol>
<symbol id="icon-burger" viewBox="0 0 32 32">
<path fill="#fff6db" style="fill: var(--color2, #fff6db)" d="M4 24v-2h24v2h-24zM4 17v-2h24v2h-24zM4 10v-2h24v2h-24z"></path>
</symbol>
<symbol id="icon-arrow" viewBox="0 0 32 32">
<path fill="none" stroke="#1d1108" style="stroke: var(--color3, #1d1108)" stroke-linejoin="miter" stroke-linecap="butt" stroke-miterlimit="4" stroke-width="0.7273" d="M0.364 16c0-8.636 7.001-15.636 15.636-15.636s15.636 7.001 15.636 15.636c0 8.636-7.001 15.636-15.636 15.636s-15.636-7.001-15.636-15.636z"></path>
<path d="M6.143 15.867c-0.142-0.142-0.142-0.372 0-0.514l2.314-2.314c0.142-0.142 0.372-0.142 0.514 0s0.142 0.372 0 0.514l-2.057 2.057 2.057 2.057c0.142 0.142 0.142 0.372 0 0.514s-0.372 0.142-0.514 0l-2.314-2.314zM25.6 15.61v0.364h-19.2v-0.727h19.2v0.364z"></path>
</symbol>
</defs>
</svg>
